<svg width="429" height="426" viewBox="0 0 429 426" fill="none" xmlns="http://www.w3.org/2000/svg">
<rect width="429" height="426" fill="#E5E5E5"/>
<rect x="61" y="66" width="324" height="332" rx="100" fill="#010101"/>
<circle cx="220.5" cy="227.5" r="137.5" fill="#C4C4C4"/>
<circle cx="220.5" cy="227.5" r="135.5" fill="black"/>
<path d="M126.83 93.0386L223.722 169.939L320.21 92.5325L277.016 208.446L380.45 276.292L256.862 271.031L224.299 390.368L191.112 271.203L67.5532 277.111L170.631 208.724L126.83 93.0386Z" fill="#FF0000"/>
<path d="M126.83 93.0386L223.722 169.939L320.21 92.5325L277.016 208.446L380.45 276.292L256.862 271.031L224.299 390.368L191.112 271.203L67.5532 277.111L170.631 208.724L126.83 93.0386Z" fill="#FF0000"/>
<path fill-rule="evenodd" clip-rule="evenodd" d="M223.5 347C290.05 347 344 293.05 344 226.5C344 159.95 290.05 106 223.5 106C156.95 106 103 159.95 103 226.5C103 293.05 156.95 347 223.5 347ZM223.5 344C288.393 344 341 291.393 341 226.5C341 161.607 288.393 109 223.5 109C158.607 109 106 161.607 106 226.5C106 291.393 158.607 344 223.5 344Z" fill="#C4C4C4"/>
<path d="M203.581 318.586C210.29 321.808 227.485 325.559 242.593 314.795M236.193 238.945C238.528 256.593 243.043 296.566 242.43 315.273M218.242 178.775C217.226 176.247 216.602 171.87 222.231 174.595M212.042 164.53C214.894 166.055 220.373 167.765 219.482 162.404M205.909 140.455C205.966 140.333 206.846 138.344 202.559 140.904C198.139 143.543 206.12 167.825 206.446 170.292C206.97 201.723 208.227 183.753 212.757 205.98C214.59 212.042 210.865 224.158 207.273 241.629M205.909 140.455C205.907 140.459 205.906 140.461 205.906 140.461C205.862 140.124 205.865 140.151 205.909 140.455ZM205.909 140.455C206.215 142.585 208.488 158.294 210.005 158.004M210.005 158.004C210.153 157.976 210.293 157.797 210.423 157.44M210.005 158.004C210.139 157.793 210.28 157.605 210.423 157.44M210.005 158.004C208.111 160.981 207.492 168.488 218.048 179.029C220.225 180.035 224.186 180.454 222.618 174.088L225.413 178.055C222.517 179.047 217.493 184.444 220.571 198.098M210.423 157.44C211.797 156.954 214.7 156.463 215.318 158.39C216.091 160.799 215.424 154.039 218.906 152.894C222.388 151.748 225.823 155.403 226.493 155.314C227.034 155.242 227.302 159.839 227.321 161.122M227.321 161.122C227.326 161.424 227.317 161.543 227.294 161.371C227.28 161.269 227.291 161.186 227.321 161.122ZM227.321 161.122C227.502 160.733 228.376 160.967 228.856 161.165L230.3 160.061C231.14 155.536 231.763 147.084 231.496 145.065C230.993 134.403 229.656 131.156 230.713 127.136C231.264 126.15 233.151 124.622 236.293 126.398C239.435 128.173 239.996 145.234 239.884 153.543L240.089 161.961C241.157 170.037 238.508 174.04 241.109 181.685C238.667 187.258 238.618 198.906 236.265 205.152C236.246 215.883 236.161 237.671 235.97 238.975C235.779 240.278 216.759 241.288 207.273 241.629M203.64 319.035C199.433 287.227 203.27 261.102 207.273 241.629M237.019 176.52C230.668 171.425 230.191 164.731 226.252 163.791C223.846 163.349 218.2 161.98 214.856 160.049C213.462 160.385 210.978 161.977 212.191 165.652C213.404 169.326 214.827 170.705 215.388 170.935C217.788 171.911 222.552 173.594 222.41 172.517" stroke="white"/>
<path d="M207.199 326.876C214.598 327.673 232.059 325.47 242.708 310.28M211.356 240.917C219.447 256.773 237.047 292.946 242.713 310.785M174.349 190.191C172.547 188.146 170.498 184.229 176.714 184.919M163.75 178.832C166.947 179.317 172.683 179.1 170.054 174.344M149.932 158.185C149.945 158.051 150.11 155.882 146.923 159.726C143.638 163.69 159.267 183.914 160.398 186.131C171.384 215.585 166.57 198.225 178.259 217.666C182.011 222.768 182.544 235.433 184.99 253.101M149.932 158.185C149.932 158.189 149.931 158.192 149.931 158.192C149.777 157.888 149.789 157.913 149.932 158.185ZM149.932 158.185C150.932 160.091 158.318 174.14 159.651 173.36M159.651 173.36C159.781 173.284 159.853 173.069 159.857 172.689M159.651 173.36C159.707 173.116 159.777 172.892 159.857 172.689M159.651 173.36C158.86 176.799 160.782 184.082 174.251 190.494C176.639 190.716 180.513 189.789 176.909 184.311L180.869 187.117C178.469 189.019 175.535 195.784 182.994 207.627M159.857 172.689C160.99 171.772 163.562 170.341 164.788 171.951C166.321 173.963 163.435 167.814 166.335 165.572C169.235 163.33 173.693 165.628 174.295 165.321C174.782 165.072 176.568 169.316 177.015 170.519M177.015 170.519C177.12 170.803 177.151 170.917 177.072 170.763C177.025 170.671 177.008 170.59 177.015 170.519ZM177.015 170.519C177.055 170.092 177.957 170.021 178.476 170.047L179.468 168.524C178.75 163.979 176.515 155.804 175.59 153.99C171.557 144.107 169.212 141.493 168.868 137.35C169.058 136.237 170.327 134.167 173.881 134.792C177.435 135.417 183.659 151.312 186.327 159.181L189.33 167.048C193.033 174.304 191.872 178.962 196.876 185.3C196.434 191.369 200.276 202.365 200.143 209.038C203.707 219.16 210.9 239.727 211.155 241.019C211.41 242.312 193.818 249.612 184.99 253.101M207.405 327.28C192.821 298.7 187.717 272.793 184.99 253.101M191.296 181.796C183.608 179.114 180.925 172.963 176.898 173.392C174.483 173.778 168.703 174.373 164.906 173.668C163.705 174.451 161.894 176.781 164.264 179.839C166.634 182.898 168.436 183.723 169.042 183.753C171.63 183.872 176.683 183.868 176.189 182.9" stroke="white"/>
<path d="M202.252 314.054C207.459 319.372 222.342 328.766 240.216 323.803M260.083 250.321C256.255 267.707 246.86 306.821 239.899 324.197M263.74 187.637C263.648 184.914 264.555 180.587 268.916 185.07M262.774 172.132C264.934 174.538 269.501 178.015 270.493 172.673M265.224 147.409C265.319 147.314 266.825 145.744 261.921 146.688C256.866 147.66 256.083 173.208 255.547 175.639C245.315 205.362 252.628 188.899 249.301 211.338C248.956 217.661 241.32 227.779 231.982 242.976M265.224 147.409C265.221 147.412 265.219 147.414 265.219 147.414C265.293 147.081 265.287 147.108 265.224 147.409ZM265.224 147.409C264.785 149.516 261.561 165.057 263.086 165.302M263.086 165.302C263.234 165.326 263.427 165.206 263.671 164.915M263.086 165.302C263.284 165.15 263.48 165.021 263.671 164.915M263.086 165.302C260.29 167.455 257.146 174.3 263.472 187.81C265.175 189.498 268.755 191.244 269.453 184.724L270.727 189.407C267.666 189.351 261.102 192.71 259.336 206.595M263.671 164.915C265.129 164.927 268.024 165.456 267.948 167.478C267.853 170.006 269.532 163.425 273.196 163.536C276.86 163.648 278.842 168.255 279.502 168.4C280.035 168.518 278.718 172.929 278.299 174.142M278.299 174.142C278.2 174.428 278.151 174.536 278.188 174.367C278.21 174.266 278.248 174.192 278.299 174.142ZM278.299 174.142C278.601 173.838 279.343 174.357 279.727 174.706L281.461 174.161C283.794 170.195 287.264 162.462 287.702 160.473C290.868 150.28 290.718 146.771 293.084 143.353C293.939 142.614 296.234 141.822 298.581 144.563C300.928 147.304 295.634 163.533 292.694 171.304L290.014 179.287C288.262 187.244 284.406 190.102 284.242 198.176C280.045 202.581 276.024 213.513 271.681 218.582C268.002 228.662 260.487 249.113 259.863 250.273C259.238 251.433 241.016 245.892 231.982 242.976M202.154 314.497C209.053 283.162 221.575 259.914 231.982 242.976M282.16 191.925C277.929 184.968 279.765 178.514 276.382 176.286C274.273 175.049 269.432 171.837 266.948 168.88C265.523 168.721 262.645 169.369 262.531 173.237C262.417 177.104 263.285 178.887 263.733 179.294C265.656 181.031 269.56 184.238 269.794 183.177" stroke="white"/>
<path d="M141.706 118.401L147.602 123.035L146.537 115.612L147.801 114.883L152.066 122.271L151.092 122.834L149.431 119.957L147.729 116.798L148.758 124.181L148.012 124.612L142.146 120.042L144.027 123.077L145.688 125.954L144.713 126.516L140.448 119.128L141.706 118.401Z" fill="white"/>
<path d="M301.944 121.178L298.743 119.33L297.231 121.948L300.95 124.096L300.49 124.892L295.797 122.182L300.062 114.794L304.705 117.475L304.242 118.276L300.574 116.158L299.203 118.533L302.404 120.382L301.944 121.178Z" fill="white"/>
<path d="M348.869 269.935L349.768 267.344L342.583 264.852L342.949 263.795L350.135 266.287L351.032 263.702L351.906 264.005L349.744 270.239L348.869 269.935Z" fill="white"/>
<path d="M222.321 354.454L225.892 354.593L226.781 352.399L227.94 352.444L224.354 360.842L223.371 360.804L220.44 352.153L221.593 352.198L222.321 354.454ZM225.517 355.505L222.619 355.392L223.916 359.436L225.517 355.505Z" fill="white"/>
<path d="M106.021 265.717L104.58 261.94L105.439 261.612L107.284 266.446L99.3129 269.487L98.9097 268.431L106.021 265.717Z" fill="white"/>
</svg>
