<svg width="688" height="708" viewBox="0 0 688 708" fill="none" xmlns="http://www.w3.org/2000/svg">
<rect width="688" height="708" fill="#E5E5E5"/>
<path d="M645.717 115.718L370.517 5.08242C362.134 1.7271 353.147 0 344.072 0C334.996 0 326.01 1.7271 317.627 5.08242L42.4267 115.718C16.77 125.952 0 150.154 0 176.983C0 451.498 164.117 641.238 317.483 702.918C334.397 709.694 353.46 709.694 370.373 702.918C493.21 653.546 688 483.029 688 176.983C688 150.154 671.23 125.952 645.717 115.718ZM344.143 617.175L344 90.272L596.123 191.642C591.393 401.02 478.447 552.73 344.143 617.175Z" fill="black" fill-opacity="0.51"/>
<path d="M344.823 19.9717C290.213 90.9694 235.451 162.118 180.916 233.04C120.867 311.712 122.95 420.169 188.963 493.15C228.3 536.494 285.082 560.159 344.302 558.592L344.177 688.028C398.787 617.031 453.322 546.108 507.933 475.111C567.831 396.59 565.824 287.909 499.81 215.375C460.625 171.879 403.692 148.366 344.547 149.857L344.823 19.9717ZM459.718 251.147C516.463 312.837 508.751 409.488 445.706 465.532C382.132 522.103 285.951 519.514 228.98 457.304C172.687 395.608 180.099 298.663 243.143 242.769C306.566 186.348 402.747 188.938 459.718 251.147Z" fill="#D8C519"/>
<g filter="url(#filter0_d)">
<path d="M466.768 383.242L444.07 370.347C446.361 358.185 446.361 345.71 444.07 333.548L466.768 320.653C469.379 319.186 470.552 316.145 469.699 313.315C463.785 294.653 453.714 277.774 440.553 263.726C438.528 261.577 435.225 261.053 432.667 262.521L409.969 275.416C400.431 267.343 389.454 261.105 377.572 257.016V231.279C377.572 228.343 375.494 225.775 372.564 225.146C353.009 220.847 332.974 221.057 314.378 225.146C311.448 225.775 309.37 228.343 309.37 231.279V257.069C297.541 261.21 286.565 267.448 276.974 275.468L254.328 262.573C251.717 261.105 248.467 261.577 246.442 263.779C233.281 277.774 223.211 294.653 217.296 313.367C216.391 316.198 217.616 319.238 220.227 320.706L242.926 333.601C240.634 345.762 240.634 358.238 242.926 370.399L220.227 383.294C217.616 384.762 216.444 387.802 217.296 390.633C223.211 409.294 233.281 426.173 246.442 440.221C248.467 442.371 251.771 442.895 254.328 441.427L277.027 428.532C286.565 436.605 297.541 442.842 309.423 446.931V472.721C309.423 475.657 311.501 478.225 314.432 478.854C333.987 483.153 354.021 482.943 372.617 478.854C375.548 478.225 377.626 475.657 377.626 472.721V446.931C389.454 442.79 400.431 436.552 410.022 428.532L432.72 441.427C435.331 442.895 438.582 442.423 440.606 440.221C453.767 426.226 463.838 409.347 469.752 390.633C470.552 387.75 469.379 384.71 466.768 383.242ZM343.471 393.883C319.973 393.883 300.844 375.064 300.844 351.948C300.844 328.831 319.973 310.012 343.471 310.012C366.969 310.012 386.098 328.831 386.098 351.948C386.098 375.064 366.969 393.883 343.471 393.883Z" fill="black"/>
<path d="M466.522 383.677L466.523 383.678C468.92 385.025 470.009 387.82 469.273 390.491C463.381 409.128 453.351 425.938 440.242 439.879L440.238 439.883C438.375 441.909 435.38 442.349 432.966 440.991L410.269 428.097L409.967 427.926L409.701 428.148C400.156 436.13 389.233 442.338 377.46 446.459L377.126 446.576V446.931V472.721C377.126 475.418 375.215 477.785 372.512 478.366L372.51 478.366C353.983 482.44 334.021 482.648 314.539 478.366L314.537 478.366C311.833 477.785 309.923 475.418 309.923 472.721V446.931V446.574L309.586 446.458C297.762 442.39 286.84 436.183 277.35 428.15L277.083 427.925L276.78 428.097L254.081 440.992L254.079 440.993C251.727 442.343 248.676 441.863 246.806 439.879C233.696 425.884 223.665 409.072 217.774 390.485C216.989 387.875 218.071 385.08 220.472 383.73L220.474 383.729L243.173 370.834L243.483 370.657L243.417 370.307C241.137 358.206 241.137 345.794 243.417 333.693L243.483 333.343L243.173 333.166L220.474 320.271L220.472 320.27C218.063 318.916 216.941 316.119 217.773 313.519L217.773 313.518C223.664 294.877 233.696 278.064 246.807 264.121L246.81 264.117C248.673 262.091 251.668 261.651 254.082 263.008C254.082 263.008 254.083 263.009 254.083 263.009L276.726 275.903L277.028 276.074L277.294 275.852C286.839 267.87 297.763 261.662 309.535 257.541L309.87 257.424V257.069V231.279C309.87 228.582 311.78 226.215 314.483 225.635L314.486 225.634C333.013 221.56 352.974 221.352 372.456 225.634L372.459 225.635C375.162 226.215 377.072 228.582 377.072 231.279V257.016V257.373L377.41 257.489C389.233 261.558 400.155 267.765 409.646 275.797L409.912 276.023L410.216 275.85L432.914 262.955L432.916 262.954C435.268 261.604 438.319 262.084 440.189 264.069C453.299 278.063 463.33 294.876 469.221 313.462C470.006 316.073 468.924 318.868 466.523 320.217L466.522 320.219L443.823 333.114L443.512 333.29L443.578 333.641C445.858 345.741 445.858 358.154 443.578 370.254L443.512 370.605L443.823 370.781L466.522 383.677ZM300.344 351.948C300.344 375.348 319.705 394.383 343.471 394.383C367.237 394.383 386.598 375.348 386.598 351.948C386.598 328.547 367.237 309.512 343.471 309.512C319.705 309.512 300.344 328.547 300.344 351.948Z" stroke="black"/>
</g>
<g filter="url(#filter1_i)">
<circle cx="345" cy="354" r="67" fill="#606060"/>
</g>
<circle cx="345" cy="354" r="66.5" stroke="black"/>
<circle cx="344.5" cy="354.5" r="42.5" fill="#C4C4C4"/>
<defs>
<filter id="filter0_d" x="213" y="222" width="261" height="272" filterUnits="userSpaceOnUse" color-interpolation-filters="sRGB">
<feFlood flood-opacity="0" result="BackgroundImageFix"/>
<feColorMatrix in="SourceAlpha" type="matrix" values="0 0 0 0 0 0 0 0 0 0 0 0 0 0 0 0 0 0 127 0"/>
<feOffset dy="8"/>
<feGaussianBlur stdDeviation="2"/>
<feColorMatrix type="matrix" values="0 0 0 0 0 0 0 0 0 0 0 0 0 0 0 0 0 0 0.25 0"/>
<feBlend mode="normal" in2="BackgroundImageFix" result="effect1_dropShadow"/>
<feBlend mode="normal" in="SourceGraphic" in2="effect1_dropShadow" result="shape"/>
</filter>
<filter id="filter1_i" x="278" y="287" width="134" height="138" filterUnits="userSpaceOnUse" color-interpolation-filters="sRGB">
<feFlood flood-opacity="0" result="BackgroundImageFix"/>
<feBlend mode="normal" in="SourceGraphic" in2="BackgroundImageFix" result="shape"/>
<feColorMatrix in="SourceAlpha" type="matrix" values="0 0 0 0 0 0 0 0 0 0 0 0 0 0 0 0 0 0 127 0" result="hardAlpha"/>
<feOffset dy="8"/>
<feGaussianBlur stdDeviation="2"/>
<feComposite in2="hardAlpha" operator="arithmetic" k2="-1" k3="1"/>
<feColorMatrix type="matrix" values="0 0 0 0 0 0 0 0 0 0 0 0 0 0 0 0 0 0 0.73 0"/>
<feBlend mode="normal" in2="shape" result="effect1_innerShadow"/>
</filter>
</defs>
</svg>
